# xmcd
#
# Track frame offsets:
#	150
#	13145
#	30565
#	43845
#	59875
#	76060
#	90440
#	106530
#	122970
#	132909
#	159150
#
# Disc length: 2284 seconds
#
# Revision: 0
# Processed by: cddbd v1.4PL0 Copyright (c) Steve Scherf et al.
# Submitted via: audiograbber 1.81.01
#
DISCID=8308ea0b
DTITLE=Mark Weigle - Out of the Loop
DYEAR=2002
DGENRE=Country
TTITLE0=In the Last 5 Minutes
TTITLE1=I Remember
TTITLE2=Bears
TTITLE3=Out (A duet with Steve Grossman)
TTITLE4=Blue Eyes to Brown Eyes
TTITLE5=Cody
TTITLE6=The Difference
TTITLE7=Wish You Were Here
TTITLE8=Us Both
TTITLE9=Love Your Body Like It Is (Featuring Lonnie Tuck)
TTITLE10=Hidden Live Track
EXTD=www.markweigle.com\nP.O. Box 7085, Vallejo, CA 94590\nMark@markweigle.com
EXTD=\n
EXTT0=
EXTT1=
EXTT2=
EXTT3=
EXTT4=
EXTT5=
EXTT6=
EXTT7=
EXTT8=
EXTT9=
EXTT10=
PLAYORDER=
